<?xml version="1.0" encoding="UTF-8" standalone="no"?>
<!-- Created with Inkscape (http://www.inkscape.org/) -->

<svg
   width="682.49133mm"
   height="682.49133mm"
   viewBox="0 0 682.49133 682.49133"
   version="1.1"
   id="svg5"
   inkscape:version="1.1.2 (0a00cf5339, 2022-02-04)"
   sodipodi:docname="drawing.svg"
   xmlns:inkscape="http://www.inkscape.org/namespaces/inkscape"
   xmlns:sodipodi="http://sodipodi.sourceforge.net/DTD/sodipodi-0.dtd"
   xmlns="http://www.w3.org/2000/svg"
   xmlns:svg="http://www.w3.org/2000/svg">
  <sodipodi:namedview
     id="namedview7"
     pagecolor="#ffffff"
     bordercolor="#666666"
     borderopacity="1.0"
     inkscape:pageshadow="2"
     inkscape:pageopacity="0.0"
     inkscape:pagecheckerboard="0"
     inkscape:document-units="mm"
     showgrid="false"
     inkscape:zoom="0.092425996"
     inkscape:cx="-259.6672"
     inkscape:cy="876.37681"
     inkscape:window-width="1920"
     inkscape:window-height="1008"
     inkscape:window-x="0"
     inkscape:window-y="0"
     inkscape:window-maximized="1"
     inkscape:current-layer="g33"
     inkscape:snap-grids="false"
     inkscape:snap-global="false"
     fit-margin-top="0"
     fit-margin-left="0"
     fit-margin-right="0"
     fit-margin-bottom="0" />
  <defs
     id="defs2" />
  <g
     inkscape:label="Layer 1"
     inkscape:groupmode="layer"
     id="layer1"
     style="display:inline"
     transform="translate(227.24648,443.51788)">
    <g
       id="g33"
       transform="matrix(0.03527778,0,0,-0.03527778,-589.97608,756.72548)">
      <path
         d="m 12315.3,18173.4 3675.1,351 c 1297,123.8 2248,1275.6 2124.2,2572.6 v 0 l -3811.9,-364 c -1275.9,-121.8 -2185.5,-1293.3 -1987.4,-2559.6 v 0"
         style="fill:#52afe6;fill-opacity:1;fill-rule:nonzero;stroke:none"
         id="path37" />
      <path
         d="m 12315.3,18173.4 3675.1,351 c 1297,123.8 2248,1275.6 2124.2,2572.6 v 0 l -3811.9,-364 c -1275.9,-121.8 -2185.5,-1293.3 -1987.4,-2559.6 z"
         style="fill:none;stroke:#211d1d;stroke-width:10;stroke-linecap:butt;stroke-linejoin:miter;stroke-miterlimit:10;stroke-dasharray:none;stroke-opacity:1"
         id="path39" />
      <path
         d="m 23937.6,23454.6 3750.1,358.1 v 0 c -123.9,1297 -1275.7,2248 -2572.6,2124.2 l -1467,-140.1 -1131.6,931.2 -1970.1,1626.6 c -421.9,348.4 -931.8,514.1 -1436.5,509.3 -66.4,0.5 -133.2,-1.7 -200.4,-7.1 l -3689.4,-296.5 v 0 c 140.4,-1272 1270.7,-2221.5 2524.7,-2120.8 l 1290.3,103.7 1143,-943.8 c 44.7,-36.8 90.4,-71.7 136.9,-104.8 l 1723.4,-1423 c 424.1,-395.2 991.2,-633.4 1604,-634 98.7,-0.4 197.3,5.2 295.2,17"
         style="fill:#52afe6;fill-opacity:1;fill-rule:nonzero;stroke:none"
         id="path41" />
      <path
         d="m 22389.3,21093.2 c 0,10.2 -0.1,20.5 -0.3,30.7 -0.2,7.7 -0.4,15.4 -0.7,23.1 -0.3,11.7 -0.7,23.4 -1.2,35.1 -0.3,6.4 -0.6,12.8 -1,19.3 -0.6,12.8 -1.4,25.6 -2.3,38.4 -0.3,5.5 -0.8,10.9 -1.2,16.4 -1,13.6 -2.1,27.2 -3.4,40.8 -0.4,4.8 -0.9,9.6 -1.4,14.4 -1.4,14.2 -2.9,28.3 -4.6,42.4 -0.5,4.4 -1.1,8.7 -1.6,13.1 -1.8,14.5 -3.6,28.9 -5.7,43.2 -0.6,4.2 -1.2,8.4 -1.8,12.6 -2.2,14.5 -4.4,29 -6.8,43.5 -0.7,4.1 -1.4,8.1 -2.1,12.2 -2.5,14.6 -5.1,29.1 -7.9,43.6 -0.8,4 -1.6,8 -2.4,12 -2.8,14.6 -5.8,29.1 -8.9,43.7 -0.9,3.8 -1.7,7.6 -2.6,11.5 -3.2,14.6 -6.6,29.3 -10.1,43.9 -0.9,3.6 -1.8,7.2 -2.7,10.8 -3.6,14.9 -7.4,29.8 -11.4,44.6 -0.8,3.2 -1.7,6.3 -2.5,9.4 -4.2,15.3 -8.5,30.6 -13,45.9 -0.7,2.5 -1.5,5 -2.2,7.5 -4.7,16 -9.6,32 -14.7,47.9 -0.5,1.5 -1,3 -1.5,4.5 -5.5,17 -11.1,33.9 -17,50.8 -0.1,0.3 -0.2,0.5 -0.3,0.8 -147.9,425.8 -417.8,811.2 -794.8,1098.8 l -2886.9,2383.6 v 0 c -829.5,-1004.6 -687.5,-2491.5 317.2,-3321.1 l 1135.8,-937.8 -746.5,-1269.6 c -660.4,-1123.1 -285.3,-2568.9 837.9,-3229.3 v 0 l 1898.9,3229.7 c 211.9,331.4 331.4,700.7 361.9,1074.4 0,0 0,0 0,0.1 1.4,17.1 2.6,34.2 3.7,51.4 0.2,3.2 0.3,6.4 0.5,9.7 0.8,14.1 1.5,28.2 2,42.3 0.2,6 0.5,12 0.6,18 0.4,11.5 0.6,23 0.8,34.6 0.1,8.3 0.2,16.6 0.3,24.9 0,9.4 0,18.8 -0.1,28.2"
         style="fill:#52afe6;fill-opacity:1;fill-rule:nonzero;stroke:none"
         id="path43" />
      <path
         d="m 24871,29538.9 c -155.3,-923.8 -1030.2,-1546.8 -1954,-1391.4 -923.8,155.3 -1546.8,1030.2 -1391.4,1954 155.3,923.8 1030.2,1546.8 1954,1391.4 923.8,-155.3 1546.8,-1030.1 1391.4,-1954"
         style="fill:#52afe6;fill-opacity:1;fill-rule:nonzero;stroke:none"
         id="path45" />
    </g>
  </g>
  <g
     inkscape:groupmode="layer"
     id="layer2"
     inkscape:label="Layer 2"
     style="display:none;opacity:0.534886"
     transform="translate(227.24648,443.51788)">
    <rect
       style="display:inline;fill:#0000ff;fill-opacity:0.397987;stroke:none;stroke-width:0.264583;stroke-opacity:1"
       id="rect3054"
       width="682.49133"
       height="682.49133"
       x="-227.24648"
       y="-443.51788" />
  </g>
</svg>
